<svg width="31" height="41" viewBox="0 0 31 41" fill="none" xmlns="http://www.w3.org/2000/svg">
<path d="M3.85938 6.27153V15.7661V15.7987H7.74194V6.8039C7.74194 5.71412 7.74194 5.4839 9.12096 4.64049C13.4455 2.91675 19.1583 3.77283 20.8854 4.64049C22.0967 5.249 22.2816 6.07797 22.2816 6.78792V15.7987H26.1582V6.3095C26.0555 4.9866 25.6969 4.1446 25.4148 3.76701C23.4624 0.57975 18.8428 0.0145212 15.3765 0.0145212C8.13016 -0.215231 5.44259 2.33624 4.63888 3.78045C4.03623 4.34986 3.8681 5.67842 3.85938 6.27153Z" fill="#B6B0A8"/>
<rect y="14.2969" width="30.0303" height="26.2438" rx="3" fill="url(#paint0_linear_1814_11799)"/>
<path d="M10.5067 34.9726C10.3586 35.5788 10.7727 35.7266 11.0387 35.7266H19.024C19.5512 35.6499 19.5927 35.192 19.5475 34.9726L17.4955 26.4276C17.4159 26.0693 17.4939 25.8518 17.5603 25.7629C19.7021 23.735 18.7512 21.3043 17.9879 20.394C17.1295 19.3703 16.2132 19.1131 15.0618 19.1129C13.4662 19.0478 12.4581 19.8919 12.1097 20.3189C10.1411 22.4411 11.3962 24.8878 12.5109 25.7647C12.6932 25.9082 12.5974 26.2774 12.5709 26.4276L10.5067 34.9726Z" fill="black"/>
<defs>
<linearGradient id="paint0_linear_1814_11799" x1="15.0151" y1="14.2969" x2="15.0151" y2="40.5407" gradientUnits="userSpaceOnUse">
<stop stop-color="#888888"/>
<stop offset="0.4" stop-color="#888888"/>
<stop offset="0.99" stop-color="#4D4D4D"/>
</linearGradient>
</defs>
</svg>
